<svg xmlns="http://www.w3.org/2000/svg" width="16" height="16" viewBox="0 0 16 16">
    <path fill-rule="evenodd" d="M8 13.118c.912 0 1.77-.228 2.574-.684a5.375 5.375 0 0 0 1.926-1.746c-.012-.456-.294-.876-.846-1.26-.48-.324-1.092-.588-1.836-.792-.672-.18-1.281-.27-1.827-.27s-1.155.09-1.827.27c-.744.204-1.35.468-1.818.792-.552.384-.834.804-.846 1.26a5.375 5.375 0 0 0 1.926 1.746A5.2 5.2 0 0 0 8 13.118zM8 2.462a2.17 2.17 0 0 0-1.116.306c-.348.204-.624.48-.828.828a2.17 2.17 0 0 0-.306 1.116c0 .396.102.768.306 1.116.204.348.48.624.828.828.348.204.72.306 1.116.306a2.17 2.17 0 0 0 1.116-.306c.348-.204.624-.48.828-.828a2.17 2.17 0 0 0 .306-1.116 2.17 2.17 0 0 0-.306-1.116 2.283 2.283 0 0 0-.828-.828A2.17 2.17 0 0 0 8 2.462zm0-2.25c1.368 0 2.634.342 3.798 1.026a7.097 7.097 0 0 1 2.664 2.664A7.364 7.364 0 0 1 15.488 7.7a7.364 7.364 0 0 1-1.026 3.798 7.097 7.097 0 0 1-2.664 2.664A7.364 7.364 0 0 1 8 15.188a7.364 7.364 0 0 1-3.798-1.026 7.231 7.231 0 0 1-2.664-2.682A7.331 7.331 0 0 1 .512 7.7c0-1.356.342-2.616 1.026-3.78A7.37 7.37 0 0 1 4.22 1.238 7.331 7.331 0 0 1 8 .212z"/>
</svg>
