<svg xmlns="http://www.w3.org/2000/svg" width="16" height="17" viewBox="0 0 16 17">
    <path fill-rule="evenodd" d="M11.777 10.64l1.828-1.828h-7.98V7.688h7.98l-1.828-1.829.774-.808L15.75 8.25l-3.2 3.2-.773-.81zm.844 2.391l.281-.281h1.442a7.976 7.976 0 0 1-2.795 2.46 7.657 7.657 0 0 1-3.674.915c-2.18 0-4.037-.768-5.572-2.303C.768 12.287 0 10.43 0 8.25s.768-4.037 2.303-5.572C3.838 1.143 5.695.375 7.875.375c1.313 0 2.537.305 3.674.914a7.976 7.976 0 0 1 2.795 2.461h-1.442l-.28-.281C11.308 2.156 9.726 1.5 7.874 1.5 6 1.5 4.406 2.156 3.094 3.469 1.78 4.78 1.125 6.375 1.125 8.25c0 1.875.656 3.469 1.969 4.781C4.406 14.344 6 15 7.875 15c1.852 0 3.434-.656 4.746-1.969z"/>
</svg>
