<svg xmlns="http://www.w3.org/2000/svg" width="18" height="18" viewBox="0 0 18 18">
    <path fill="#CECECE" fill-rule="evenodd" d="M13.125 10.969l-.188.328L18 16.407 16.406 18l-5.062-5.11-.328.235c-1.25.781-2.547 1.172-3.891 1.172-1.969 0-3.648-.703-5.04-2.11C.696 10.781 0 9.095 0 7.125c0-1.969.695-3.648 2.086-5.04C3.476.696 5.156 0 7.125 0c1.969 0 3.648.695 5.04 2.086 1.39 1.39 2.085 3.07 2.085 5.039a7.066 7.066 0 0 1-1.125 3.844zM11.109 3.14C10.016 2.047 8.688 1.5 7.125 1.5c-1.563 0-2.89.547-3.984 1.64C2.047 4.235 1.5 5.563 1.5 7.126c0 1.563.547 2.89 1.64 3.984 1.094 1.094 2.422 1.641 3.985 1.641 1.563 0 2.89-.547 3.984-1.64 1.125-1.126 1.688-2.454 1.688-3.985 0-1.531-.563-2.86-1.688-3.984z"/>
</svg>
