<svg xmlns="http://www.w3.org/2000/svg" width="6" height="20" viewBox="0 0 6 20">
    <path fill="#253342" fill-rule="evenodd" d="M.598 17.75v-.527c0-.013.003-.033.01-.059a.124.124 0 0 1 .029-.059c.078-.56.325-1.038.742-1.435a2.191 2.191 0 0 1 1.445-.635c.612-.052 1.153.082 1.621.4.47.32.788.766.957 1.338.026.066.05.137.069.215.02.078.036.157.049.235v.527a.136.136 0 0 1-.01.059l-.03.058c-.078.508-.29.947-.634 1.319a2.347 2.347 0 0 1-1.28.712.771.771 0 0 1-.117.03.771.771 0 0 0-.117.029h-.527a.136.136 0 0 1-.059-.01l-.058-.029a2.367 2.367 0 0 1-1.3-.625 2.461 2.461 0 0 1-.712-1.25 4.563 4.563 0 0 0-.04-.147 4.563 4.563 0 0 1-.038-.146zm4.922-15v.527a.267.267 0 0 1-.01.059.124.124 0 0 1-.03.059 2.389 2.389 0 0 1-.742 1.435 2.212 2.212 0 0 1-1.465.635c-.599.039-1.136-.101-1.61-.42a2.363 2.363 0 0 1-.968-1.338 4.663 4.663 0 0 0-.049-.215 4.662 4.662 0 0 1-.048-.215V2.75c0-.026.003-.046.01-.059l.029-.058c.09-.508.283-.928.576-1.26.293-.332.687-.576 1.182-.732.065-.013.13-.03.195-.05.065-.019.13-.035.195-.048h.547c.013 0 .03.006.049.02.02.013.036.019.049.019A2.437 2.437 0 0 1 5.46 2.477c0 .039.006.08.02.127l.039.146zm0 7.227v.546a.16.16 0 0 1-.01.05.536.536 0 0 1-.03.068 2.465 2.465 0 0 1-.771 1.435c-.423.397-.908.609-1.455.635-.625.026-1.175-.13-1.65-.469a2.316 2.316 0 0 1-.928-1.367 3.816 3.816 0 0 1-.04-.176 3.816 3.816 0 0 0-.038-.176v-.546c0-.013.006-.03.02-.05a.12.12 0 0 0 .019-.068c.078-.56.332-1.038.761-1.435.43-.397.918-.609 1.465-.635.625-.026 1.175.13 1.65.469.476.338.785.794.928 1.367.013.052.026.11.04.176.012.065.026.123.039.176z"/>
</svg>
